<svg xmlns="http://www.w3.org/2000/svg" id="export" class="canvas" preserveAspectRatio="xMidYMid meet" style="" width="1033" height="146"><rect id="background" fill="#fff" pointer-events="all" width="1033" height="146"/><g id="origin" transform="translate(6.6000000000000005, 6.6000000000000005) scale(1)"><g id="clusters" class="clusters"/><g id="edge-paths" class="edge-paths" style="pointer-events: none;"><defs><marker id="arrowhead" viewBox="0 0 10 10" refX="9" refY="5" markerUnits="strokeWidth" markerWidth="8" markerHeight="6" orient="auto" style="fill: rgb(0, 0, 0);"><path d="M 0 0 L 10 5 L 0 10 L 4 5 z" style="stroke-width: 1;"/></marker><marker id="arrowhead-select" viewBox="0 0 10 10" refX="9" refY="5" markerUnits="strokeWidth" markerWidth="8" markerHeight="6" orient="auto" style="fill: rgba(220, 0, 0, 0.9);"><path d="M 0 0 L 10 5 L 0 10 L 4 5 z" style="stroke-width: 1;"/></marker><marker id="arrowhead-hover" viewBox="0 0 10 10" refX="9" refY="5" markerUnits="strokeWidth" markerWidth="8" markerHeight="6" orient="auto" style="fill: rgba(220, 0, 0, 0.9);"><path d="M 0 0 L 10 5 L 0 10 L 4 5 z" style="stroke-width: 1;"/></marker></defs><path id="edge-input_layer" class="edge-path" d="M72.265625,66L73.93229166666667,66C75.59895833333333,66,78.93229166666667,66,86.73307291666667,66C94.53385416666667,66,106.80208333333333,66,119.0703125,66C131.33854166666666,66,143.60677083333334,66,151.40755208333334,66C159.20833333333334,66,162.54166666666666,66,164.20833333333334,66L165.875,66" style="stroke: rgb(0, 0, 0); stroke-width: 1px; fill: none; marker-end: url(&quot;#arrowhead&quot;);"/><path id="edge-lstm" class="edge-path" d="M312.625,66L316.0026041666667,66C319.3802083333333,66,326.1354166666667,66,332.890625,66C339.6458333333333,66,346.4010416666667,66,349.7786458333333,66L353.15625,66" style="stroke: rgb(0, 0, 0); stroke-width: 1px; fill: none; marker-end: url(&quot;#arrowhead&quot;);"/><path id="edge-dropout" class="edge-path" d="M428.78125,66L433.6158854166667,66C438.4505208333333,66,448.1197916666667,66,457.7890625,66C467.4583333333333,66,477.1276041666667,66,481.9622395833333,66L486.796875,66" style="stroke: rgb(0, 0, 0); stroke-width: 1px; fill: none; marker-end: url(&quot;#arrowhead&quot;);"/><path id="edge-lstm_1" class="edge-path" d="M633.546875,66L637.72265625,66C641.8984375,66,650.25,66,658.6015625,66C666.953125,66,675.3046875,66,679.48046875,66L683.65625,66" style="stroke: rgb(0, 0, 0); stroke-width: 1px; fill: none; marker-end: url(&quot;#arrowhead&quot;);"/><path id="edge-dropout_1" class="edge-path" d="M759.28125,66L764.9153645833334,66C770.5494791666666,66,781.8177083333334,66,793.0859375,66C804.3541666666666,66,815.6223958333334,66,821.2565104166666,66L826.890625,66" style="stroke: rgb(0, 0, 0); stroke-width: 1px; fill: none; marker-end: url(&quot;#arrowhead&quot;);"/><path id="edge-dense" class="edge-path" d="M923.9375,66L928.0403645833334,66C932.1432291666666,66,940.3489583333334,66,948.5546875,66C956.7604166666666,66,964.9661458333334,66,969.0690104166666,66L973.171875,66" style="stroke: rgb(0, 0, 0); stroke-width: 1px; fill: none; marker-end: url(&quot;#arrowhead&quot;);"/></g><g id="edge-labels" class="edge-labels"><text class="edge-label" id="edge-label-edge-input_layer" transform="translate(92.265625,76)" style="opacity: 1; font-family: -apple-system, BlinkMacSystemFont, &quot;Segoe WPC&quot;, &quot;Segoe UI&quot;, Ubuntu, &quot;Droid Sans&quot;, sans-serif, &quot;PingFang SC&quot;; font-size: 10px;"><tspan xml:space="preserve" dy="1em" x="1">input_layer</tspan></text><text class="edge-label" id="edge-label-edge-lstm" transform="translate(322.625,76)" style="opacity: 1; font-family: -apple-system, BlinkMacSystemFont, &quot;Segoe WPC&quot;, &quot;Segoe UI&quot;, Ubuntu, &quot;Droid Sans&quot;, sans-serif, &quot;PingFang SC&quot;; font-size: 10px;"><tspan xml:space="preserve" dy="1em" x="1">lstm</tspan></text><text class="edge-label" id="edge-label-edge-dropout" transform="translate(438.78125,76)" style="opacity: 1; font-family: -apple-system, BlinkMacSystemFont, &quot;Segoe WPC&quot;, &quot;Segoe UI&quot;, Ubuntu, &quot;Droid Sans&quot;, sans-serif, &quot;PingFang SC&quot;; font-size: 10px;"><tspan xml:space="preserve" dy="1em" x="1">dropout</tspan></text><text class="edge-label" id="edge-label-edge-lstm_1" transform="translate(643.546875,76)" style="opacity: 1; font-family: -apple-system, BlinkMacSystemFont, &quot;Segoe WPC&quot;, &quot;Segoe UI&quot;, Ubuntu, &quot;Droid Sans&quot;, sans-serif, &quot;PingFang SC&quot;; font-size: 10px;"><tspan xml:space="preserve" dy="1em" x="1">lstm_1</tspan></text><text class="edge-label" id="edge-label-edge-dropout_1" transform="translate(769.28125,76)" style="opacity: 1; font-family: -apple-system, BlinkMacSystemFont, &quot;Segoe WPC&quot;, &quot;Segoe UI&quot;, Ubuntu, &quot;Droid Sans&quot;, sans-serif, &quot;PingFang SC&quot;; font-size: 10px;"><tspan xml:space="preserve" dy="1em" x="1">dropout_1</tspan></text><text class="edge-label" id="edge-label-edge-dense" transform="translate(933.9375,76)" style="opacity: 1; font-family: -apple-system, BlinkMacSystemFont, &quot;Segoe WPC&quot;, &quot;Segoe UI&quot;, Ubuntu, &quot;Droid Sans&quot;, sans-serif, &quot;PingFang SC&quot;; font-size: 10px;"><tspan xml:space="preserve" dy="1em" x="1">dense</tspan></text></g><g id="nodes" class="nodes"><g id="input-name-input_layer" class="node graph-input" transform="translate(0,55.48486328125)" style=""><g class="node-item graph-item-input" transform="translate(0,0)"><path d="M5,0h62.265625a5,5 0 0 1 5,5v11.0302734375a5,5 0 0 1 -5,5h-62.265625a5,5 0 0 1 -5,-5v-11.0302734375a5,5 0 0 1 5,-5z" style="stroke: rgb(0, 0, 0); fill: rgb(238, 238, 238); stroke-width: 0;"/><text x="6" y="15" style="font-family: -apple-system, BlinkMacSystemFont, &quot;Segoe WPC&quot;, &quot;Segoe UI&quot;, Ubuntu, &quot;Droid Sans&quot;, sans-serif, &quot;PingFang SC&quot;; font-size: 11px; text-rendering: geometricprecision; user-select: none;">input_layer</text><title>float32</title></g><path class="node node-border" d="M5,0h62.265625a5,5 0 0 1 5,5v11.0302734375a5,5 0 0 1 -5,5h-62.265625a5,5 0 0 1 -5,-5v-11.0302734375a5,5 0 0 1 5,-5z" style="stroke: rgb(51, 51, 51); fill: none; stroke-width: 1px;"/></g><g id="node-name-lstm" class="node graph-node" transform="translate(165.875,0)" style=""><g class="node-item node-item-type node-item-type-layer" transform="translate(0,0)"><path d="M5,0h136.75a5,5 0 0 1 5,5v16a0,0 0 0 1 0,0h-146.75a0,0 0 0 1 0,0v-16a5,5 0 0 1 5,-5z" style="stroke: rgb(0, 0, 0); fill: rgb(51, 85, 136); stroke-width: 0;"/><text x="6" y="15" style="font-family: -apple-system, BlinkMacSystemFont, &quot;Segoe WPC&quot;, &quot;Segoe UI&quot;, Ubuntu, &quot;Droid Sans&quot;, sans-serif, &quot;PingFang SC&quot;; font-size: 11px; text-rendering: geometricprecision; user-select: none; fill: rgb(255, 255, 255);">lstm</text><title>LSTM</title></g><g class="node-argument-list" transform="translate(0,21)"><path d="M0,0h146.75a0,0 0 0 1 0,0v71a0,0 0 0 1 0,0h-146.75a0,0 0 0 1 0,0v-71a0,0 0 0 1 0,0z" style="stroke: rgb(0, 0, 0); fill: rgb(255, 255, 255); stroke-width: 0;"/><g class="node-argument"><rect rx="3" ry="3" x="3" y="3" width="140.75" height="13" style="fill: transparent;"/><text xml:space="preserve" x="6" y="13" style="font-family: -apple-system, BlinkMacSystemFont, &quot;Segoe WPC&quot;, &quot;Segoe UI&quot;, Ubuntu, &quot;Droid Sans&quot;, sans-serif, &quot;PingFang SC&quot;; font-size: 9px; font-weight: normal; text-rendering: geometricprecision; user-select: none;"><tspan>recurrent_activation</tspan><tspan> = sigmoid</tspan></text></g><g class="node-argument"><rect rx="3" ry="3" x="3" y="16" width="140.75" height="13" style="fill: transparent;"/><text xml:space="preserve" x="6" y="26" style="font-family: -apple-system, BlinkMacSystemFont, &quot;Segoe WPC&quot;, &quot;Segoe UI&quot;, Ubuntu, &quot;Droid Sans&quot;, sans-serif, &quot;PingFang SC&quot;; font-size: 9px; font-weight: normal; text-rendering: geometricprecision; user-select: none;"><tspan>return_sequences</tspan><tspan> = true</tspan></text></g><g class="node-argument"><rect rx="3" ry="3" x="3" y="29" width="140.75" height="13" style="fill: transparent;"/><text xml:space="preserve" x="6" y="39" style="font-family: -apple-system, BlinkMacSystemFont, &quot;Segoe WPC&quot;, &quot;Segoe UI&quot;, Ubuntu, &quot;Droid Sans&quot;, sans-serif, &quot;PingFang SC&quot;; font-size: 9px; font-weight: normal; text-rendering: geometricprecision; user-select: none;"><tspan>seed</tspan><tspan> = </tspan></text></g><g class="node-argument"><rect rx="3" ry="3" x="3" y="42" width="140.75" height="13" style="fill: transparent;"/><text xml:space="preserve" x="6" y="52" style="font-family: -apple-system, BlinkMacSystemFont, &quot;Segoe WPC&quot;, &quot;Segoe UI&quot;, Ubuntu, &quot;Droid Sans&quot;, sans-serif, &quot;PingFang SC&quot;; font-size: 9px; font-weight: normal; text-rendering: geometricprecision; user-select: none;"><tspan>units</tspan><tspan> = 50</tspan></text></g><g class="node-argument"><rect rx="3" ry="3" x="3" y="55" width="140.75" height="13" style="fill: transparent;"/><text xml:space="preserve" x="6" y="65" style="font-family: -apple-system, BlinkMacSystemFont, &quot;Segoe WPC&quot;, &quot;Segoe UI&quot;, Ubuntu, &quot;Droid Sans&quot;, sans-serif, &quot;PingFang SC&quot;; font-size: 9px; font-weight: normal; text-rendering: geometricprecision; user-select: none;"><tspan>zero_output_for_mask</tspan><tspan> = false</tspan></text></g><line class="node" x1="0" x2="146.75" y1="0" y2="0" style="stroke: rgb(51, 51, 51); fill: none; stroke-width: 1px;"/></g><g class="node-item node-item-type node-item-type-activation" transform="translate(0,92)"><path d="M0,0h146.75a0,0 0 0 1 0,0v21a0,0 0 0 1 0,0h-146.75a0,0 0 0 1 0,0v-21a0,0 0 0 1 0,0z" style="stroke: rgb(0, 0, 0); fill: rgb(112, 41, 33); stroke-width: 0;"/><text x="6" y="15" style="font-family: -apple-system, BlinkMacSystemFont, &quot;Segoe WPC&quot;, &quot;Segoe UI&quot;, Ubuntu, &quot;Droid Sans&quot;, sans-serif, &quot;PingFang SC&quot;; font-size: 11px; text-rendering: geometricprecision; user-select: none; fill: rgb(255, 255, 255);">Activation</text></g><line class="node" x1="0" x2="146.75" y1="92" y2="92" style="stroke: rgb(51, 51, 51); fill: none; stroke-width: 1px;"/><g class="node-argument-list" transform="translate(0,113)"><path d="M0,0h146.75a0,0 0 0 1 0,0v14a5,5 0 0 1 -5,5h-136.75a5,5 0 0 1 -5,-5v-14a0,0 0 0 1 0,0z" style="stroke: rgb(0, 0, 0); fill: rgb(255, 255, 255); stroke-width: 0;"/><g class="node-argument"><rect rx="3" ry="3" x="3" y="3" width="140.75" height="13" style="fill: transparent;"/><text xml:space="preserve" x="6" y="13" style="font-family: -apple-system, BlinkMacSystemFont, &quot;Segoe WPC&quot;, &quot;Segoe UI&quot;, Ubuntu, &quot;Droid Sans&quot;, sans-serif, &quot;PingFang SC&quot;; font-size: 9px; font-weight: normal; text-rendering: geometricprecision; user-select: none;"><tspan>activation</tspan><tspan> = tanh</tspan></text></g><line class="node" x1="0" x2="146.75" y1="0" y2="0" style="stroke: rgb(51, 51, 51); fill: none; stroke-width: 1px;"/></g><path class="node node-border" d="M5,0h136.75a5,5 0 0 1 5,5v122a5,5 0 0 1 -5,5h-136.75a5,5 0 0 1 -5,-5v-122a5,5 0 0 1 5,-5z" style="stroke: rgb(51, 51, 51); fill: none; stroke-width: 1px;"/></g><g id="node-name-dropout" class="node graph-node" transform="translate(353.15625,33)" style=""><g class="node-item node-item-type node-item-type-dropout" transform="translate(0,0)"><path d="M5,0h65.625a5,5 0 0 1 5,5v16a0,0 0 0 1 0,0h-75.625a0,0 0 0 1 0,0v-16a5,5 0 0 1 5,-5z" style="stroke: rgb(0, 0, 0); fill: rgb(69, 71, 112); stroke-width: 0;"/><text x="6" y="15" style="font-family: -apple-system, BlinkMacSystemFont, &quot;Segoe WPC&quot;, &quot;Segoe UI&quot;, Ubuntu, &quot;Droid Sans&quot;, sans-serif, &quot;PingFang SC&quot;; font-size: 11px; text-rendering: geometricprecision; user-select: none; fill: rgb(255, 255, 255);">dropout</text><title>Dropout</title></g><g class="node-argument-list" transform="translate(0,21)"><path d="M0,0h75.625a0,0 0 0 1 0,0v40a5,5 0 0 1 -5,5h-65.625a5,5 0 0 1 -5,-5v-40a0,0 0 0 1 0,0z" style="stroke: rgb(0, 0, 0); fill: rgb(255, 255, 255); stroke-width: 0;"/><g class="node-argument"><rect rx="3" ry="3" x="3" y="3" width="69.625" height="13" style="fill: transparent;"/><text xml:space="preserve" x="6" y="13" style="font-family: -apple-system, BlinkMacSystemFont, &quot;Segoe WPC&quot;, &quot;Segoe UI&quot;, Ubuntu, &quot;Droid Sans&quot;, sans-serif, &quot;PingFang SC&quot;; font-size: 9px; font-weight: normal; text-rendering: geometricprecision; user-select: none;"><tspan>noise_shape</tspan><tspan> = </tspan></text></g><g class="node-argument"><rect rx="3" ry="3" x="3" y="16" width="69.625" height="13" style="fill: transparent;"/><text xml:space="preserve" x="6" y="26" style="font-family: -apple-system, BlinkMacSystemFont, &quot;Segoe WPC&quot;, &quot;Segoe UI&quot;, Ubuntu, &quot;Droid Sans&quot;, sans-serif, &quot;PingFang SC&quot;; font-size: 9px; font-weight: normal; text-rendering: geometricprecision; user-select: none;"><tspan>rate</tspan><tspan> = 0.2</tspan></text></g><g class="node-argument"><rect rx="3" ry="3" x="3" y="29" width="69.625" height="13" style="fill: transparent;"/><text xml:space="preserve" x="6" y="39" style="font-family: -apple-system, BlinkMacSystemFont, &quot;Segoe WPC&quot;, &quot;Segoe UI&quot;, Ubuntu, &quot;Droid Sans&quot;, sans-serif, &quot;PingFang SC&quot;; font-size: 9px; font-weight: normal; text-rendering: geometricprecision; user-select: none;"><tspan>seed</tspan><tspan> = </tspan></text></g><line class="node" x1="0" x2="75.625" y1="0" y2="0" style="stroke: rgb(51, 51, 51); fill: none; stroke-width: 1px;"/></g><path class="node node-border" d="M5,0h65.625a5,5 0 0 1 5,5v56a5,5 0 0 1 -5,5h-65.625a5,5 0 0 1 -5,-5v-56a5,5 0 0 1 5,-5z" style="stroke: rgb(51, 51, 51); fill: none; stroke-width: 1px;"/></g><g id="node-name-lstm_1" class="node graph-node" transform="translate(486.796875,6.5)" style=""><g class="node-item node-item-type node-item-type-layer" transform="translate(0,0)"><path d="M5,0h136.75a5,5 0 0 1 5,5v16a0,0 0 0 1 0,0h-146.75a0,0 0 0 1 0,0v-16a5,5 0 0 1 5,-5z" style="stroke: rgb(0, 0, 0); fill: rgb(51, 85, 136); stroke-width: 0;"/><text x="6" y="15" style="font-family: -apple-system, BlinkMacSystemFont, &quot;Segoe WPC&quot;, &quot;Segoe UI&quot;, Ubuntu, &quot;Droid Sans&quot;, sans-serif, &quot;PingFang SC&quot;; font-size: 11px; text-rendering: geometricprecision; user-select: none; fill: rgb(255, 255, 255);">lstm_1</text><title>LSTM</title></g><g class="node-argument-list" transform="translate(0,21)"><path d="M0,0h146.75a0,0 0 0 1 0,0v58a0,0 0 0 1 0,0h-146.75a0,0 0 0 1 0,0v-58a0,0 0 0 1 0,0z" style="stroke: rgb(0, 0, 0); fill: rgb(255, 255, 255); stroke-width: 0;"/><g class="node-argument"><rect rx="3" ry="3" x="3" y="3" width="140.75" height="13" style="fill: transparent;"/><text xml:space="preserve" x="6" y="13" style="font-family: -apple-system, BlinkMacSystemFont, &quot;Segoe WPC&quot;, &quot;Segoe UI&quot;, Ubuntu, &quot;Droid Sans&quot;, sans-serif, &quot;PingFang SC&quot;; font-size: 9px; font-weight: normal; text-rendering: geometricprecision; user-select: none;"><tspan>recurrent_activation</tspan><tspan> = sigmoid</tspan></text></g><g class="node-argument"><rect rx="3" ry="3" x="3" y="16" width="140.75" height="13" style="fill: transparent;"/><text xml:space="preserve" x="6" y="26" style="font-family: -apple-system, BlinkMacSystemFont, &quot;Segoe WPC&quot;, &quot;Segoe UI&quot;, Ubuntu, &quot;Droid Sans&quot;, sans-serif, &quot;PingFang SC&quot;; font-size: 9px; font-weight: normal; text-rendering: geometricprecision; user-select: none;"><tspan>seed</tspan><tspan> = </tspan></text></g><g class="node-argument"><rect rx="3" ry="3" x="3" y="29" width="140.75" height="13" style="fill: transparent;"/><text xml:space="preserve" x="6" y="39" style="font-family: -apple-system, BlinkMacSystemFont, &quot;Segoe WPC&quot;, &quot;Segoe UI&quot;, Ubuntu, &quot;Droid Sans&quot;, sans-serif, &quot;PingFang SC&quot;; font-size: 9px; font-weight: normal; text-rendering: geometricprecision; user-select: none;"><tspan>units</tspan><tspan> = 50</tspan></text></g><g class="node-argument"><rect rx="3" ry="3" x="3" y="42" width="140.75" height="13" style="fill: transparent;"/><text xml:space="preserve" x="6" y="52" style="font-family: -apple-system, BlinkMacSystemFont, &quot;Segoe WPC&quot;, &quot;Segoe UI&quot;, Ubuntu, &quot;Droid Sans&quot;, sans-serif, &quot;PingFang SC&quot;; font-size: 9px; font-weight: normal; text-rendering: geometricprecision; user-select: none;"><tspan>zero_output_for_mask</tspan><tspan> = false</tspan></text></g><line class="node" x1="0" x2="146.75" y1="0" y2="0" style="stroke: rgb(51, 51, 51); fill: none; stroke-width: 1px;"/></g><g class="node-item node-item-type node-item-type-activation" transform="translate(0,79)"><path d="M0,0h146.75a0,0 0 0 1 0,0v21a0,0 0 0 1 0,0h-146.75a0,0 0 0 1 0,0v-21a0,0 0 0 1 0,0z" style="stroke: rgb(0, 0, 0); fill: rgb(112, 41, 33); stroke-width: 0;"/><text x="6" y="15" style="font-family: -apple-system, BlinkMacSystemFont, &quot;Segoe WPC&quot;, &quot;Segoe UI&quot;, Ubuntu, &quot;Droid Sans&quot;, sans-serif, &quot;PingFang SC&quot;; font-size: 11px; text-rendering: geometricprecision; user-select: none; fill: rgb(255, 255, 255);">Activation</text></g><line class="node" x1="0" x2="146.75" y1="79" y2="79" style="stroke: rgb(51, 51, 51); fill: none; stroke-width: 1px;"/><g class="node-argument-list" transform="translate(0,100)"><path d="M0,0h146.75a0,0 0 0 1 0,0v14a5,5 0 0 1 -5,5h-136.75a5,5 0 0 1 -5,-5v-14a0,0 0 0 1 0,0z" style="stroke: rgb(0, 0, 0); fill: rgb(255, 255, 255); stroke-width: 0;"/><g class="node-argument"><rect rx="3" ry="3" x="3" y="3" width="140.75" height="13" style="fill: transparent;"/><text xml:space="preserve" x="6" y="13" style="font-family: -apple-system, BlinkMacSystemFont, &quot;Segoe WPC&quot;, &quot;Segoe UI&quot;, Ubuntu, &quot;Droid Sans&quot;, sans-serif, &quot;PingFang SC&quot;; font-size: 9px; font-weight: normal; text-rendering: geometricprecision; user-select: none;"><tspan>activation</tspan><tspan> = tanh</tspan></text></g><line class="node" x1="0" x2="146.75" y1="0" y2="0" style="stroke: rgb(51, 51, 51); fill: none; stroke-width: 1px;"/></g><path class="node node-border" d="M5,0h136.75a5,5 0 0 1 5,5v109a5,5 0 0 1 -5,5h-136.75a5,5 0 0 1 -5,-5v-109a5,5 0 0 1 5,-5z" style="stroke: rgb(51, 51, 51); fill: none; stroke-width: 1px;"/></g><g id="node-name-dropout_1" class="node graph-node" transform="translate(683.65625,33)" style=""><g class="node-item node-item-type node-item-type-dropout" transform="translate(0,0)"><path d="M5,0h65.625a5,5 0 0 1 5,5v16a0,0 0 0 1 0,0h-75.625a0,0 0 0 1 0,0v-16a5,5 0 0 1 5,-5z" style="stroke: rgb(0, 0, 0); fill: rgb(69, 71, 112); stroke-width: 0;"/><text x="6" y="15" style="font-family: -apple-system, BlinkMacSystemFont, &quot;Segoe WPC&quot;, &quot;Segoe UI&quot;, Ubuntu, &quot;Droid Sans&quot;, sans-serif, &quot;PingFang SC&quot;; font-size: 11px; text-rendering: geometricprecision; user-select: none; fill: rgb(255, 255, 255);">dropout_1</text><title>Dropout</title></g><g class="node-argument-list" transform="translate(0,21)"><path d="M0,0h75.625a0,0 0 0 1 0,0v40a5,5 0 0 1 -5,5h-65.625a5,5 0 0 1 -5,-5v-40a0,0 0 0 1 0,0z" style="stroke: rgb(0, 0, 0); fill: rgb(255, 255, 255); stroke-width: 0;"/><g class="node-argument"><rect rx="3" ry="3" x="3" y="3" width="69.625" height="13" style="fill: transparent;"/><text xml:space="preserve" x="6" y="13" style="font-family: -apple-system, BlinkMacSystemFont, &quot;Segoe WPC&quot;, &quot;Segoe UI&quot;, Ubuntu, &quot;Droid Sans&quot;, sans-serif, &quot;PingFang SC&quot;; font-size: 9px; font-weight: normal; text-rendering: geometricprecision; user-select: none;"><tspan>noise_shape</tspan><tspan> = </tspan></text></g><g class="node-argument"><rect rx="3" ry="3" x="3" y="16" width="69.625" height="13" style="fill: transparent;"/><text xml:space="preserve" x="6" y="26" style="font-family: -apple-system, BlinkMacSystemFont, &quot;Segoe WPC&quot;, &quot;Segoe UI&quot;, Ubuntu, &quot;Droid Sans&quot;, sans-serif, &quot;PingFang SC&quot;; font-size: 9px; font-weight: normal; text-rendering: geometricprecision; user-select: none;"><tspan>rate</tspan><tspan> = 0.2</tspan></text></g><g class="node-argument"><rect rx="3" ry="3" x="3" y="29" width="69.625" height="13" style="fill: transparent;"/><text xml:space="preserve" x="6" y="39" style="font-family: -apple-system, BlinkMacSystemFont, &quot;Segoe WPC&quot;, &quot;Segoe UI&quot;, Ubuntu, &quot;Droid Sans&quot;, sans-serif, &quot;PingFang SC&quot;; font-size: 9px; font-weight: normal; text-rendering: geometricprecision; user-select: none;"><tspan>seed</tspan><tspan> = </tspan></text></g><line class="node" x1="0" x2="75.625" y1="0" y2="0" style="stroke: rgb(51, 51, 51); fill: none; stroke-width: 1px;"/></g><path class="node node-border" d="M5,0h65.625a5,5 0 0 1 5,5v56a5,5 0 0 1 -5,5h-65.625a5,5 0 0 1 -5,-5v-56a5,5 0 0 1 5,-5z" style="stroke: rgb(51, 51, 51); fill: none; stroke-width: 1px;"/></g><g id="node-name-dense" class="node graph-node" transform="translate(826.890625,20)" style=""><g class="node-item node-item-type node-item-type-layer" transform="translate(0,0)"><path d="M5,0h87.046875a5,5 0 0 1 5,5v16a0,0 0 0 1 0,0h-97.046875a0,0 0 0 1 0,0v-16a5,5 0 0 1 5,-5z" style="stroke: rgb(0, 0, 0); fill: rgb(51, 85, 136); stroke-width: 0;"/><text x="6" y="15" style="font-family: -apple-system, BlinkMacSystemFont, &quot;Segoe WPC&quot;, &quot;Segoe UI&quot;, Ubuntu, &quot;Droid Sans&quot;, sans-serif, &quot;PingFang SC&quot;; font-size: 11px; text-rendering: geometricprecision; user-select: none; fill: rgb(255, 255, 255);">dense</text><title>Dense</title></g><g class="node-argument-list" transform="translate(0,21)"><path d="M0,0h97.046875a0,0 0 0 1 0,0v66a5,5 0 0 1 -5,5h-87.046875a5,5 0 0 1 -5,-5v-66a0,0 0 0 1 0,0z" style="stroke: rgb(0, 0, 0); fill: rgb(255, 255, 255); stroke-width: 0;"/><g class="node-argument"><rect rx="3" ry="3" x="3" y="3" width="91.046875" height="13" style="fill: transparent;"/><text xml:space="preserve" x="6" y="13" style="font-family: -apple-system, BlinkMacSystemFont, &quot;Segoe WPC&quot;, &quot;Segoe UI&quot;, Ubuntu, &quot;Droid Sans&quot;, sans-serif, &quot;PingFang SC&quot;; font-size: 9px; font-weight: normal; text-rendering: geometricprecision; user-select: none;"><title>float32[50,1]</title><tspan style="font-weight: bold;">kernel</tspan><tspan>〈50×1〉</tspan></text></g><g class="node-argument"><rect rx="3" ry="3" x="3" y="16" width="91.046875" height="13" style="fill: transparent;"/><text xml:space="preserve" x="6" y="26" style="font-family: -apple-system, BlinkMacSystemFont, &quot;Segoe WPC&quot;, &quot;Segoe UI&quot;, Ubuntu, &quot;Droid Sans&quot;, sans-serif, &quot;PingFang SC&quot;; font-size: 9px; font-weight: normal; text-rendering: geometricprecision; user-select: none;"><title>float32[1]</title><tspan style="font-weight: bold;">bias</tspan><tspan>〈1〉</tspan></text></g><g class="node-argument"><rect rx="3" ry="3" x="3" y="29" width="91.046875" height="13" style="fill: transparent;"/><text xml:space="preserve" x="6" y="39" style="font-family: -apple-system, BlinkMacSystemFont, &quot;Segoe WPC&quot;, &quot;Segoe UI&quot;, Ubuntu, &quot;Droid Sans&quot;, sans-serif, &quot;PingFang SC&quot;; font-size: 9px; font-weight: normal; text-rendering: geometricprecision; user-select: none;"><tspan>bias_constraint</tspan><tspan> = </tspan></text></g><g class="node-argument"><rect rx="3" ry="3" x="3" y="42" width="91.046875" height="13" style="fill: transparent;"/><text xml:space="preserve" x="6" y="52" style="font-family: -apple-system, BlinkMacSystemFont, &quot;Segoe WPC&quot;, &quot;Segoe UI&quot;, Ubuntu, &quot;Droid Sans&quot;, sans-serif, &quot;PingFang SC&quot;; font-size: 9px; font-weight: normal; text-rendering: geometricprecision; user-select: none;"><tspan>kernel_constraint</tspan><tspan> = </tspan></text></g><g class="node-argument"><rect rx="3" ry="3" x="3" y="55" width="91.046875" height="13" style="fill: transparent;"/><text xml:space="preserve" x="6" y="65" style="font-family: -apple-system, BlinkMacSystemFont, &quot;Segoe WPC&quot;, &quot;Segoe UI&quot;, Ubuntu, &quot;Droid Sans&quot;, sans-serif, &quot;PingFang SC&quot;; font-size: 9px; font-weight: normal; text-rendering: geometricprecision; user-select: none;"><tspan>units</tspan><tspan> = 1</tspan></text></g><line class="node" x1="0" x2="97.046875" y1="0" y2="0" style="stroke: rgb(51, 51, 51); fill: none; stroke-width: 1px;"/></g><path class="node node-border" d="M5,0h87.046875a5,5 0 0 1 5,5v82a5,5 0 0 1 -5,5h-87.046875a5,5 0 0 1 -5,-5v-82a5,5 0 0 1 5,-5z" style="stroke: rgb(51, 51, 51); fill: none; stroke-width: 1px;"/></g><g class="node" transform="translate(973.171875,55.5)" style=""><g class="node-item graph-item-output" transform="translate(0,0)"><path d="M5,0h35.828125a5,5 0 0 1 5,5v11a5,5 0 0 1 -5,5h-35.828125a5,5 0 0 1 -5,-5v-11a5,5 0 0 1 5,-5z" style="stroke: rgb(0, 0, 0); fill: rgb(238, 238, 238); stroke-width: 0;"/><text x="6" y="15" style="font-family: -apple-system, BlinkMacSystemFont, &quot;Segoe WPC&quot;, &quot;Segoe UI&quot;, Ubuntu, &quot;Droid Sans&quot;, sans-serif, &quot;PingFang SC&quot;; font-size: 11px; text-rendering: geometricprecision; user-select: none;">dense</text></g><path class="node node-border" d="M5,0h35.828125a5,5 0 0 1 5,5v11a5,5 0 0 1 -5,5h-35.828125a5,5 0 0 1 -5,-5v-11a5,5 0 0 1 5,-5z" style="stroke: rgb(51, 51, 51); fill: none; stroke-width: 1px;"/></g></g></g></svg>