<svg xmlns="http://www.w3.org/2000/svg" id="export" class="canvas" preserveAspectRatio="xMidYMid meet" style="" width="1660" height="190"><rect id="background" fill="#fff" pointer-events="all" style="" width="1660" height="190"/><g id="origin" transform="translate(8.6, 8.6) scale(1)"><g id="clusters" class="clusters"/><g id="edge-paths" class="edge-paths" style="pointer-events: none;"><defs><marker id="arrowhead" viewBox="0 0 10 10" refX="9" refY="5" markerUnits="strokeWidth" markerWidth="8" markerHeight="6" orient="auto" style="fill: rgb(0, 0, 0);"><path d="M 0 0 L 10 5 L 0 10 L 4 5 z" style="stroke-width: 1;"/></marker><marker id="arrowhead-select" viewBox="0 0 10 10" refX="9" refY="5" markerUnits="strokeWidth" markerWidth="8" markerHeight="6" orient="auto" style="fill: rgba(220, 0, 0, 0.9);"><path d="M 0 0 L 10 5 L 0 10 L 4 5 z" style="stroke-width: 1;"/></marker><marker id="arrowhead-hover" viewBox="0 0 10 10" refX="9" refY="5" markerUnits="strokeWidth" markerWidth="8" markerHeight="6" orient="auto" style="fill: rgba(220, 0, 0, 0.9);"><path d="M 0 0 L 10 5 L 0 10 L 4 5 z" style="stroke-width: 1;"/></marker></defs><path id="edge-input_layer_8" class="edge-path" d="M84.921875,86L86.58854166666667,86C88.25520833333333,86,91.58854166666667,86,100.35807291666667,86C109.12760416666667,86,123.33333333333333,86,137.5390625,86C151.74479166666666,86,165.95052083333334,86,174.72005208333334,86C183.48958333333334,86,186.82291666666666,86,188.48958333333334,86L190.15625,86" style="stroke: rgb(0, 0, 0); stroke-width: 1px; fill: none; marker-end: url(&quot;#arrowhead&quot;);"/><path id="edge-bidirectional_24" class="edge-path" d="M351.5,86L359.6861979166667,86C367.8723958333333,86,384.2447916666667,86,400.6171875,86C416.9895833333333,86,433.3619791666667,86,441.5481770833333,86L449.734375,86" style="stroke: rgb(0, 0, 0); stroke-width: 1px; fill: none; marker-end: url(&quot;#arrowhead&quot;);"/><path id="edge-dropout_24" class="edge-path" d="M525.359375,86L531.7369791666666,86C538.1145833333334,86,550.8697916666666,86,563.625,86C576.3802083333334,86,589.1354166666666,86,595.5130208333334,86L601.890625,86" style="stroke: rgb(0, 0, 0); stroke-width: 1px; fill: none; marker-end: url(&quot;#arrowhead&quot;);"/><path id="edge-bidirectional_25" class="edge-path" d="M763.234375,86L771.4114583333334,86C779.5885416666666,86,795.9427083333334,86,812.296875,86C828.6510416666666,86,845.0052083333334,86,853.1822916666666,86L861.359375,86" style="stroke: rgb(0, 0, 0); stroke-width: 1px; fill: none; marker-end: url(&quot;#arrowhead&quot;);"/><path id="edge-dropout_25" class="edge-path" d="M936.984375,86L943.3528645833334,86C949.7213541666666,86,962.4583333333334,86,975.1953125,86C987.9322916666666,86,1000.6692708333334,86,1007.0377604166666,86L1013.40625,86" style="stroke: rgb(0, 0, 0); stroke-width: 1px; fill: none; marker-end: url(&quot;#arrowhead&quot;);"/><path id="edge-bidirectional_26" class="edge-path" d="M1174.75,86L1182.9427083333333,86C1191.1354166666667,86,1207.5208333333333,86,1223.90625,86C1240.2916666666667,86,1256.6770833333333,86,1264.8697916666667,86L1273.0625,86" style="stroke: rgb(0, 0, 0); stroke-width: 1px; fill: none; marker-end: url(&quot;#arrowhead&quot;);"/><path id="edge-dropout_26" class="edge-path" d="M1348.6875,86L1355.0716145833333,86C1361.4557291666667,86,1374.2239583333333,86,1386.9921875,86C1399.7604166666667,86,1412.5286458333333,86,1418.9127604166667,86L1425.296875,86" style="stroke: rgb(0, 0, 0); stroke-width: 1px; fill: none; marker-end: url(&quot;#arrowhead&quot;);"/><path id="edge-dense_8" class="edge-path" d="M1522.34375,86L1527.4270833333333,86C1532.5104166666667,86,1542.6770833333333,86,1552.84375,86C1563.0104166666667,86,1573.1770833333333,86,1578.2604166666667,86L1583.34375,86" style="stroke: rgb(0, 0, 0); stroke-width: 1px; fill: none; marker-end: url(&quot;#arrowhead&quot;);"/></g><g id="edge-labels" class="edge-labels"><text class="edge-label" id="edge-label-edge-input_layer_8" transform="translate(104.921875,96)" style="opacity: 1; font-family: -apple-system, BlinkMacSystemFont, &quot;Segoe WPC&quot;, &quot;Segoe UI&quot;, Ubuntu, &quot;Droid Sans&quot;, sans-serif, &quot;PingFang SC&quot;; font-size: 10px;"><tspan xml:space="preserve" dy="1em" x="1">input_layer_8</tspan></text><text class="edge-label" id="edge-label-edge-bidirectional_24" transform="translate(361.5,96)" style="opacity: 1; font-family: -apple-system, BlinkMacSystemFont, &quot;Segoe WPC&quot;, &quot;Segoe UI&quot;, Ubuntu, &quot;Droid Sans&quot;, sans-serif, &quot;PingFang SC&quot;; font-size: 10px;"><tspan xml:space="preserve" dy="1em" x="1">bidirectional_24</tspan></text><text class="edge-label" id="edge-label-edge-dropout_24" transform="translate(535.359375,96)" style="opacity: 1; font-family: -apple-system, BlinkMacSystemFont, &quot;Segoe WPC&quot;, &quot;Segoe UI&quot;, Ubuntu, &quot;Droid Sans&quot;, sans-serif, &quot;PingFang SC&quot;; font-size: 10px;"><tspan xml:space="preserve" dy="1em" x="1">dropout_24</tspan></text><text class="edge-label" id="edge-label-edge-bidirectional_25" transform="translate(773.234375,96)" style="opacity: 1; font-family: -apple-system, BlinkMacSystemFont, &quot;Segoe WPC&quot;, &quot;Segoe UI&quot;, Ubuntu, &quot;Droid Sans&quot;, sans-serif, &quot;PingFang SC&quot;; font-size: 10px;"><tspan xml:space="preserve" dy="1em" x="1">bidirectional_25</tspan></text><text class="edge-label" id="edge-label-edge-dropout_25" transform="translate(946.984375,96)" style="opacity: 1; font-family: -apple-system, BlinkMacSystemFont, &quot;Segoe WPC&quot;, &quot;Segoe UI&quot;, Ubuntu, &quot;Droid Sans&quot;, sans-serif, &quot;PingFang SC&quot;; font-size: 10px;"><tspan xml:space="preserve" dy="1em" x="1">dropout_25</tspan></text><text class="edge-label" id="edge-label-edge-bidirectional_26" transform="translate(1184.75,96)" style="opacity: 1; font-family: -apple-system, BlinkMacSystemFont, &quot;Segoe WPC&quot;, &quot;Segoe UI&quot;, Ubuntu, &quot;Droid Sans&quot;, sans-serif, &quot;PingFang SC&quot;; font-size: 10px;"><tspan xml:space="preserve" dy="1em" x="1">bidirectional_26</tspan></text><text class="edge-label" id="edge-label-edge-dropout_26" transform="translate(1358.6875,96)" style="opacity: 1; font-family: -apple-system, BlinkMacSystemFont, &quot;Segoe WPC&quot;, &quot;Segoe UI&quot;, Ubuntu, &quot;Droid Sans&quot;, sans-serif, &quot;PingFang SC&quot;; font-size: 10px;"><tspan xml:space="preserve" dy="1em" x="1">dropout_26</tspan></text><text class="edge-label" id="edge-label-edge-dense_8" transform="translate(1532.34375,96)" style="opacity: 1; font-family: -apple-system, BlinkMacSystemFont, &quot;Segoe WPC&quot;, &quot;Segoe UI&quot;, Ubuntu, &quot;Droid Sans&quot;, sans-serif, &quot;PingFang SC&quot;; font-size: 10px;"><tspan xml:space="preserve" dy="1em" x="1">dense_8</tspan></text></g><g id="nodes" class="nodes"><g id="input-name-input_layer_8" class="node graph-input" transform="translate(0,75.48486328125)" style=""><g class="node-item graph-item-input" transform="translate(0,0)"><path d="M5,0h74.921875a5,5 0 0 1 5,5v11.0302734375a5,5 0 0 1 -5,5h-74.921875a5,5 0 0 1 -5,-5v-11.0302734375a5,5 0 0 1 5,-5z" style="stroke: rgb(0, 0, 0); fill: rgb(238, 238, 238); stroke-width: 0;"/><text x="6" y="15" style="font-family: -apple-system, BlinkMacSystemFont, &quot;Segoe WPC&quot;, &quot;Segoe UI&quot;, Ubuntu, &quot;Droid Sans&quot;, sans-serif, &quot;PingFang SC&quot;; font-size: 11px; text-rendering: geometricprecision; user-select: none;">input_layer_8</text><title>float32</title></g><path class="node node-border" d="M5,0h74.921875a5,5 0 0 1 5,5v11.0302734375a5,5 0 0 1 -5,5h-74.921875a5,5 0 0 1 -5,-5v-11.0302734375a5,5 0 0 1 5,-5z" style="stroke: rgb(51, 51, 51); fill: none; stroke-width: 1px;"/></g><g id="node-name-bidirectional_24" class="node graph-node" transform="translate(190.15625,0)" style=""><g class="node-item node-item-type node-item-type-wrapper" transform="translate(0,0)"><path d="M5,0h151.34375a5,5 0 0 1 5,5v16a0,0 0 0 1 0,0h-161.34375a0,0 0 0 1 0,0v-16a5,5 0 0 1 5,-5z" style="stroke: rgb(0, 0, 0); fill: rgb(238, 238, 238); stroke-width: 0;"/><text x="6" y="15" style="font-family: -apple-system, BlinkMacSystemFont, &quot;Segoe WPC&quot;, &quot;Segoe UI&quot;, Ubuntu, &quot;Droid Sans&quot;, sans-serif, &quot;PingFang SC&quot;; font-size: 11px; text-rendering: geometricprecision; user-select: none; fill: rgb(0, 0, 0);">bidirectional_24</text><title>Bidirectional</title></g><g class="node-argument-list" transform="translate(0,21)"><path d="M0,0h161.34375a0,0 0 0 1 0,0v19a0,0 0 0 1 0,0h-161.34375a0,0 0 0 1 0,0v-19a0,0 0 0 1 0,0z" style="stroke: rgb(0, 0, 0); fill: rgb(255, 255, 255); stroke-width: 0;"/><g class="node-argument"><rect rx="3" ry="3" x="3" y="3" width="155.34375" height="13" style="fill: transparent;"/><text xml:space="preserve" x="6" y="13" style="font-family: -apple-system, BlinkMacSystemFont, &quot;Segoe WPC&quot;, &quot;Segoe UI&quot;, Ubuntu, &quot;Droid Sans&quot;, sans-serif, &quot;PingFang SC&quot;; font-size: 9px; font-weight: normal; text-rendering: geometricprecision; user-select: none;"><tspan>backward_layer</tspan><tspan> = LSTM(name: "…</tspan></text></g><line class="node" x1="0" x2="161.34375" y1="0" y2="0" style="stroke: rgb(51, 51, 51); fill: none; stroke-width: 1px;"/></g><g class="node-item node-item-type node-item-type-layer" transform="translate(0,40)"><path d="M0,0h161.34375a0,0 0 0 1 0,0v21a0,0 0 0 1 0,0h-161.34375a0,0 0 0 1 0,0v-21a0,0 0 0 1 0,0z" style="stroke: rgb(0, 0, 0); fill: rgb(51, 85, 136); stroke-width: 0;"/><text x="6" y="15" style="font-family: -apple-system, BlinkMacSystemFont, &quot;Segoe WPC&quot;, &quot;Segoe UI&quot;, Ubuntu, &quot;Droid Sans&quot;, sans-serif, &quot;PingFang SC&quot;; font-size: 11px; text-rendering: geometricprecision; user-select: none; fill: rgb(255, 255, 255);">forward_lstm_21</text><title>LSTM</title></g><line class="node" x1="0" x2="161.34375" y1="40" y2="40" style="stroke: rgb(51, 51, 51); fill: none; stroke-width: 1px;"/><g class="node-argument-list" transform="translate(0,61)"><path d="M0,0h161.34375a0,0 0 0 1 0,0v71a0,0 0 0 1 0,0h-161.34375a0,0 0 0 1 0,0v-71a0,0 0 0 1 0,0z" style="stroke: rgb(0, 0, 0); fill: rgb(255, 255, 255); stroke-width: 0;"/><g class="node-argument"><rect rx="3" ry="3" x="3" y="3" width="155.34375" height="13" style="fill: transparent;"/><text xml:space="preserve" x="6" y="13" style="font-family: -apple-system, BlinkMacSystemFont, &quot;Segoe WPC&quot;, &quot;Segoe UI&quot;, Ubuntu, &quot;Droid Sans&quot;, sans-serif, &quot;PingFang SC&quot;; font-size: 9px; font-weight: normal; text-rendering: geometricprecision; user-select: none;"><tspan>recurrent_activation</tspan><tspan> = sigmoid</tspan></text></g><g class="node-argument"><rect rx="3" ry="3" x="3" y="16" width="155.34375" height="13" style="fill: transparent;"/><text xml:space="preserve" x="6" y="26" style="font-family: -apple-system, BlinkMacSystemFont, &quot;Segoe WPC&quot;, &quot;Segoe UI&quot;, Ubuntu, &quot;Droid Sans&quot;, sans-serif, &quot;PingFang SC&quot;; font-size: 9px; font-weight: normal; text-rendering: geometricprecision; user-select: none;"><tspan>return_sequences</tspan><tspan> = true</tspan></text></g><g class="node-argument"><rect rx="3" ry="3" x="3" y="29" width="155.34375" height="13" style="fill: transparent;"/><text xml:space="preserve" x="6" y="39" style="font-family: -apple-system, BlinkMacSystemFont, &quot;Segoe WPC&quot;, &quot;Segoe UI&quot;, Ubuntu, &quot;Droid Sans&quot;, sans-serif, &quot;PingFang SC&quot;; font-size: 9px; font-weight: normal; text-rendering: geometricprecision; user-select: none;"><tspan>seed</tspan><tspan> = </tspan></text></g><g class="node-argument"><rect rx="3" ry="3" x="3" y="42" width="155.34375" height="13" style="fill: transparent;"/><text xml:space="preserve" x="6" y="52" style="font-family: -apple-system, BlinkMacSystemFont, &quot;Segoe WPC&quot;, &quot;Segoe UI&quot;, Ubuntu, &quot;Droid Sans&quot;, sans-serif, &quot;PingFang SC&quot;; font-size: 9px; font-weight: normal; text-rendering: geometricprecision; user-select: none;"><tspan>units</tspan><tspan> = 64</tspan></text></g><g class="node-argument"><rect rx="3" ry="3" x="3" y="55" width="155.34375" height="13" style="fill: transparent;"/><text xml:space="preserve" x="6" y="65" style="font-family: -apple-system, BlinkMacSystemFont, &quot;Segoe WPC&quot;, &quot;Segoe UI&quot;, Ubuntu, &quot;Droid Sans&quot;, sans-serif, &quot;PingFang SC&quot;; font-size: 9px; font-weight: normal; text-rendering: geometricprecision; user-select: none;"><tspan>zero_output_for_mask</tspan><tspan> = true</tspan></text></g><line class="node" x1="0" x2="161.34375" y1="0" y2="0" style="stroke: rgb(51, 51, 51); fill: none; stroke-width: 1px;"/></g><g class="node-item node-item-type node-item-type-activation" transform="translate(0,132)"><path d="M0,0h161.34375a0,0 0 0 1 0,0v21a0,0 0 0 1 0,0h-161.34375a0,0 0 0 1 0,0v-21a0,0 0 0 1 0,0z" style="stroke: rgb(0, 0, 0); fill: rgb(112, 41, 33); stroke-width: 0;"/><text x="6" y="15" style="font-family: -apple-system, BlinkMacSystemFont, &quot;Segoe WPC&quot;, &quot;Segoe UI&quot;, Ubuntu, &quot;Droid Sans&quot;, sans-serif, &quot;PingFang SC&quot;; font-size: 11px; text-rendering: geometricprecision; user-select: none; fill: rgb(255, 255, 255);">Activation</text></g><line class="node" x1="0" x2="161.34375" y1="132" y2="132" style="stroke: rgb(51, 51, 51); fill: none; stroke-width: 1px;"/><g class="node-argument-list" transform="translate(0,153)"><path d="M0,0h161.34375a0,0 0 0 1 0,0v14a5,5 0 0 1 -5,5h-151.34375a5,5 0 0 1 -5,-5v-14a0,0 0 0 1 0,0z" style="stroke: rgb(0, 0, 0); fill: rgb(255, 255, 255); stroke-width: 0;"/><g class="node-argument"><rect rx="3" ry="3" x="3" y="3" width="155.34375" height="13" style="fill: transparent;"/><text xml:space="preserve" x="6" y="13" style="font-family: -apple-system, BlinkMacSystemFont, &quot;Segoe WPC&quot;, &quot;Segoe UI&quot;, Ubuntu, &quot;Droid Sans&quot;, sans-serif, &quot;PingFang SC&quot;; font-size: 9px; font-weight: normal; text-rendering: geometricprecision; user-select: none;"><tspan>activation</tspan><tspan> = tanh</tspan></text></g><line class="node" x1="0" x2="161.34375" y1="0" y2="0" style="stroke: rgb(51, 51, 51); fill: none; stroke-width: 1px;"/></g><path class="node node-border" d="M5,0h151.34375a5,5 0 0 1 5,5v162a5,5 0 0 1 -5,5h-151.34375a5,5 0 0 1 -5,-5v-162a5,5 0 0 1 5,-5z" style="stroke: rgb(51, 51, 51); fill: none; stroke-width: 1px;"/></g><g id="node-name-dropout_24" class="node graph-node" transform="translate(449.734375,53)" style=""><g class="node-item node-item-type node-item-type-dropout" transform="translate(0,0)"><path d="M5,0h65.625a5,5 0 0 1 5,5v16a0,0 0 0 1 0,0h-75.625a0,0 0 0 1 0,0v-16a5,5 0 0 1 5,-5z" style="stroke: rgb(0, 0, 0); fill: rgb(69, 71, 112); stroke-width: 0;"/><text x="6" y="15" style="font-family: -apple-system, BlinkMacSystemFont, &quot;Segoe WPC&quot;, &quot;Segoe UI&quot;, Ubuntu, &quot;Droid Sans&quot;, sans-serif, &quot;PingFang SC&quot;; font-size: 11px; text-rendering: geometricprecision; user-select: none; fill: rgb(255, 255, 255);">dropout_24</text><title>Dropout</title></g><g class="node-argument-list" transform="translate(0,21)"><path d="M0,0h75.625a0,0 0 0 1 0,0v40a5,5 0 0 1 -5,5h-65.625a5,5 0 0 1 -5,-5v-40a0,0 0 0 1 0,0z" style="stroke: rgb(0, 0, 0); fill: rgb(255, 255, 255); stroke-width: 0;"/><g class="node-argument"><rect rx="3" ry="3" x="3" y="3" width="69.625" height="13" style="fill: transparent;"/><text xml:space="preserve" x="6" y="13" style="font-family: -apple-system, BlinkMacSystemFont, &quot;Segoe WPC&quot;, &quot;Segoe UI&quot;, Ubuntu, &quot;Droid Sans&quot;, sans-serif, &quot;PingFang SC&quot;; font-size: 9px; font-weight: normal; text-rendering: geometricprecision; user-select: none;"><tspan>noise_shape</tspan><tspan> = </tspan></text></g><g class="node-argument"><rect rx="3" ry="3" x="3" y="16" width="69.625" height="13" style="fill: transparent;"/><text xml:space="preserve" x="6" y="26" style="font-family: -apple-system, BlinkMacSystemFont, &quot;Segoe WPC&quot;, &quot;Segoe UI&quot;, Ubuntu, &quot;Droid Sans&quot;, sans-serif, &quot;PingFang SC&quot;; font-size: 9px; font-weight: normal; text-rendering: geometricprecision; user-select: none;"><tspan>rate</tspan><tspan> = 0.3</tspan></text></g><g class="node-argument"><rect rx="3" ry="3" x="3" y="29" width="69.625" height="13" style="fill: transparent;"/><text xml:space="preserve" x="6" y="39" style="font-family: -apple-system, BlinkMacSystemFont, &quot;Segoe WPC&quot;, &quot;Segoe UI&quot;, Ubuntu, &quot;Droid Sans&quot;, sans-serif, &quot;PingFang SC&quot;; font-size: 9px; font-weight: normal; text-rendering: geometricprecision; user-select: none;"><tspan>seed</tspan><tspan> = </tspan></text></g><line class="node" x1="0" x2="75.625" y1="0" y2="0" style="stroke: rgb(51, 51, 51); fill: none; stroke-width: 1px;"/></g><path class="node node-border" d="M5,0h65.625a5,5 0 0 1 5,5v56a5,5 0 0 1 -5,5h-65.625a5,5 0 0 1 -5,-5v-56a5,5 0 0 1 5,-5z" style="stroke: rgb(51, 51, 51); fill: none; stroke-width: 1px;"/></g><g id="node-name-bidirectional_25" class="node graph-node" transform="translate(601.890625,0)" style=""><g class="node-item node-item-type node-item-type-wrapper" transform="translate(0,0)"><path d="M5,0h151.34375a5,5 0 0 1 5,5v16a0,0 0 0 1 0,0h-161.34375a0,0 0 0 1 0,0v-16a5,5 0 0 1 5,-5z" style="stroke: rgb(0, 0, 0); fill: rgb(238, 238, 238); stroke-width: 0;"/><text x="6" y="15" style="font-family: -apple-system, BlinkMacSystemFont, &quot;Segoe WPC&quot;, &quot;Segoe UI&quot;, Ubuntu, &quot;Droid Sans&quot;, sans-serif, &quot;PingFang SC&quot;; font-size: 11px; text-rendering: geometricprecision; user-select: none; fill: rgb(0, 0, 0);">bidirectional_25</text><title>Bidirectional</title></g><g class="node-argument-list" transform="translate(0,21)"><path d="M0,0h161.34375a0,0 0 0 1 0,0v19a0,0 0 0 1 0,0h-161.34375a0,0 0 0 1 0,0v-19a0,0 0 0 1 0,0z" style="stroke: rgb(0, 0, 0); fill: rgb(255, 255, 255); stroke-width: 0;"/><g class="node-argument"><rect rx="3" ry="3" x="3" y="3" width="155.34375" height="13" style="fill: transparent;"/><text xml:space="preserve" x="6" y="13" style="font-family: -apple-system, BlinkMacSystemFont, &quot;Segoe WPC&quot;, &quot;Segoe UI&quot;, Ubuntu, &quot;Droid Sans&quot;, sans-serif, &quot;PingFang SC&quot;; font-size: 9px; font-weight: normal; text-rendering: geometricprecision; user-select: none;"><tspan>backward_layer</tspan><tspan> = LSTM(name: "…</tspan></text></g><line class="node" x1="0" x2="161.34375" y1="0" y2="0" style="stroke: rgb(51, 51, 51); fill: none; stroke-width: 1px;"/></g><g class="node-item node-item-type node-item-type-layer" transform="translate(0,40)"><path d="M0,0h161.34375a0,0 0 0 1 0,0v21a0,0 0 0 1 0,0h-161.34375a0,0 0 0 1 0,0v-21a0,0 0 0 1 0,0z" style="stroke: rgb(0, 0, 0); fill: rgb(51, 85, 136); stroke-width: 0;"/><text x="6" y="15" style="font-family: -apple-system, BlinkMacSystemFont, &quot;Segoe WPC&quot;, &quot;Segoe UI&quot;, Ubuntu, &quot;Droid Sans&quot;, sans-serif, &quot;PingFang SC&quot;; font-size: 11px; text-rendering: geometricprecision; user-select: none; fill: rgb(255, 255, 255);">forward_lstm_22</text><title>LSTM</title></g><line class="node" x1="0" x2="161.34375" y1="40" y2="40" style="stroke: rgb(51, 51, 51); fill: none; stroke-width: 1px;"/><g class="node-argument-list" transform="translate(0,61)"><path d="M0,0h161.34375a0,0 0 0 1 0,0v71a0,0 0 0 1 0,0h-161.34375a0,0 0 0 1 0,0v-71a0,0 0 0 1 0,0z" style="stroke: rgb(0, 0, 0); fill: rgb(255, 255, 255); stroke-width: 0;"/><g class="node-argument"><rect rx="3" ry="3" x="3" y="3" width="155.34375" height="13" style="fill: transparent;"/><text xml:space="preserve" x="6" y="13" style="font-family: -apple-system, BlinkMacSystemFont, &quot;Segoe WPC&quot;, &quot;Segoe UI&quot;, Ubuntu, &quot;Droid Sans&quot;, sans-serif, &quot;PingFang SC&quot;; font-size: 9px; font-weight: normal; text-rendering: geometricprecision; user-select: none;"><tspan>recurrent_activation</tspan><tspan> = sigmoid</tspan></text></g><g class="node-argument"><rect rx="3" ry="3" x="3" y="16" width="155.34375" height="13" style="fill: transparent;"/><text xml:space="preserve" x="6" y="26" style="font-family: -apple-system, BlinkMacSystemFont, &quot;Segoe WPC&quot;, &quot;Segoe UI&quot;, Ubuntu, &quot;Droid Sans&quot;, sans-serif, &quot;PingFang SC&quot;; font-size: 9px; font-weight: normal; text-rendering: geometricprecision; user-select: none;"><tspan>return_sequences</tspan><tspan> = true</tspan></text></g><g class="node-argument"><rect rx="3" ry="3" x="3" y="29" width="155.34375" height="13" style="fill: transparent;"/><text xml:space="preserve" x="6" y="39" style="font-family: -apple-system, BlinkMacSystemFont, &quot;Segoe WPC&quot;, &quot;Segoe UI&quot;, Ubuntu, &quot;Droid Sans&quot;, sans-serif, &quot;PingFang SC&quot;; font-size: 9px; font-weight: normal; text-rendering: geometricprecision; user-select: none;"><tspan>seed</tspan><tspan> = </tspan></text></g><g class="node-argument"><rect rx="3" ry="3" x="3" y="42" width="155.34375" height="13" style="fill: transparent;"/><text xml:space="preserve" x="6" y="52" style="font-family: -apple-system, BlinkMacSystemFont, &quot;Segoe WPC&quot;, &quot;Segoe UI&quot;, Ubuntu, &quot;Droid Sans&quot;, sans-serif, &quot;PingFang SC&quot;; font-size: 9px; font-weight: normal; text-rendering: geometricprecision; user-select: none;"><tspan>units</tspan><tspan> = 32</tspan></text></g><g class="node-argument"><rect rx="3" ry="3" x="3" y="55" width="155.34375" height="13" style="fill: transparent;"/><text xml:space="preserve" x="6" y="65" style="font-family: -apple-system, BlinkMacSystemFont, &quot;Segoe WPC&quot;, &quot;Segoe UI&quot;, Ubuntu, &quot;Droid Sans&quot;, sans-serif, &quot;PingFang SC&quot;; font-size: 9px; font-weight: normal; text-rendering: geometricprecision; user-select: none;"><tspan>zero_output_for_mask</tspan><tspan> = true</tspan></text></g><line class="node" x1="0" x2="161.34375" y1="0" y2="0" style="stroke: rgb(51, 51, 51); fill: none; stroke-width: 1px;"/></g><g class="node-item node-item-type node-item-type-activation" transform="translate(0,132)"><path d="M0,0h161.34375a0,0 0 0 1 0,0v21a0,0 0 0 1 0,0h-161.34375a0,0 0 0 1 0,0v-21a0,0 0 0 1 0,0z" style="stroke: rgb(0, 0, 0); fill: rgb(112, 41, 33); stroke-width: 0;"/><text x="6" y="15" style="font-family: -apple-system, BlinkMacSystemFont, &quot;Segoe WPC&quot;, &quot;Segoe UI&quot;, Ubuntu, &quot;Droid Sans&quot;, sans-serif, &quot;PingFang SC&quot;; font-size: 11px; text-rendering: geometricprecision; user-select: none; fill: rgb(255, 255, 255);">Activation</text></g><line class="node" x1="0" x2="161.34375" y1="132" y2="132" style="stroke: rgb(51, 51, 51); fill: none; stroke-width: 1px;"/><g class="node-argument-list" transform="translate(0,153)"><path d="M0,0h161.34375a0,0 0 0 1 0,0v14a5,5 0 0 1 -5,5h-151.34375a5,5 0 0 1 -5,-5v-14a0,0 0 0 1 0,0z" style="stroke: rgb(0, 0, 0); fill: rgb(255, 255, 255); stroke-width: 0;"/><g class="node-argument"><rect rx="3" ry="3" x="3" y="3" width="155.34375" height="13" style="fill: transparent;"/><text xml:space="preserve" x="6" y="13" style="font-family: -apple-system, BlinkMacSystemFont, &quot;Segoe WPC&quot;, &quot;Segoe UI&quot;, Ubuntu, &quot;Droid Sans&quot;, sans-serif, &quot;PingFang SC&quot;; font-size: 9px; font-weight: normal; text-rendering: geometricprecision; user-select: none;"><tspan>activation</tspan><tspan> = tanh</tspan></text></g><line class="node" x1="0" x2="161.34375" y1="0" y2="0" style="stroke: rgb(51, 51, 51); fill: none; stroke-width: 1px;"/></g><path class="node node-border" d="M5,0h151.34375a5,5 0 0 1 5,5v162a5,5 0 0 1 -5,5h-151.34375a5,5 0 0 1 -5,-5v-162a5,5 0 0 1 5,-5z" style="stroke: rgb(51, 51, 51); fill: none; stroke-width: 1px;"/></g><g id="node-name-dropout_25" class="node graph-node" transform="translate(861.359375,53)" style=""><g class="node-item node-item-type node-item-type-dropout" transform="translate(0,0)"><path d="M5,0h65.625a5,5 0 0 1 5,5v16a0,0 0 0 1 0,0h-75.625a0,0 0 0 1 0,0v-16a5,5 0 0 1 5,-5z" style="stroke: rgb(0, 0, 0); fill: rgb(69, 71, 112); stroke-width: 0;"/><text x="6" y="15" style="font-family: -apple-system, BlinkMacSystemFont, &quot;Segoe WPC&quot;, &quot;Segoe UI&quot;, Ubuntu, &quot;Droid Sans&quot;, sans-serif, &quot;PingFang SC&quot;; font-size: 11px; text-rendering: geometricprecision; user-select: none; fill: rgb(255, 255, 255);">dropout_25</text><title>Dropout</title></g><g class="node-argument-list" transform="translate(0,21)"><path d="M0,0h75.625a0,0 0 0 1 0,0v40a5,5 0 0 1 -5,5h-65.625a5,5 0 0 1 -5,-5v-40a0,0 0 0 1 0,0z" style="stroke: rgb(0, 0, 0); fill: rgb(255, 255, 255); stroke-width: 0;"/><g class="node-argument"><rect rx="3" ry="3" x="3" y="3" width="69.625" height="13" style="fill: transparent;"/><text xml:space="preserve" x="6" y="13" style="font-family: -apple-system, BlinkMacSystemFont, &quot;Segoe WPC&quot;, &quot;Segoe UI&quot;, Ubuntu, &quot;Droid Sans&quot;, sans-serif, &quot;PingFang SC&quot;; font-size: 9px; font-weight: normal; text-rendering: geometricprecision; user-select: none;"><tspan>noise_shape</tspan><tspan> = </tspan></text></g><g class="node-argument"><rect rx="3" ry="3" x="3" y="16" width="69.625" height="13" style="fill: transparent;"/><text xml:space="preserve" x="6" y="26" style="font-family: -apple-system, BlinkMacSystemFont, &quot;Segoe WPC&quot;, &quot;Segoe UI&quot;, Ubuntu, &quot;Droid Sans&quot;, sans-serif, &quot;PingFang SC&quot;; font-size: 9px; font-weight: normal; text-rendering: geometricprecision; user-select: none;"><tspan>rate</tspan><tspan> = 0.3</tspan></text></g><g class="node-argument"><rect rx="3" ry="3" x="3" y="29" width="69.625" height="13" style="fill: transparent;"/><text xml:space="preserve" x="6" y="39" style="font-family: -apple-system, BlinkMacSystemFont, &quot;Segoe WPC&quot;, &quot;Segoe UI&quot;, Ubuntu, &quot;Droid Sans&quot;, sans-serif, &quot;PingFang SC&quot;; font-size: 9px; font-weight: normal; text-rendering: geometricprecision; user-select: none;"><tspan>seed</tspan><tspan> = </tspan></text></g><line class="node" x1="0" x2="75.625" y1="0" y2="0" style="stroke: rgb(51, 51, 51); fill: none; stroke-width: 1px;"/></g><path class="node node-border" d="M5,0h65.625a5,5 0 0 1 5,5v56a5,5 0 0 1 -5,5h-65.625a5,5 0 0 1 -5,-5v-56a5,5 0 0 1 5,-5z" style="stroke: rgb(51, 51, 51); fill: none; stroke-width: 1px;"/></g><g id="node-name-bidirectional_26" class="node graph-node" transform="translate(1013.40625,6.5)" style=""><g class="node-item node-item-type node-item-type-wrapper" transform="translate(0,0)"><path d="M5,0h151.34375a5,5 0 0 1 5,5v16a0,0 0 0 1 0,0h-161.34375a0,0 0 0 1 0,0v-16a5,5 0 0 1 5,-5z" style="stroke: rgb(0, 0, 0); fill: rgb(238, 238, 238); stroke-width: 0;"/><text x="6" y="15" style="font-family: -apple-system, BlinkMacSystemFont, &quot;Segoe WPC&quot;, &quot;Segoe UI&quot;, Ubuntu, &quot;Droid Sans&quot;, sans-serif, &quot;PingFang SC&quot;; font-size: 11px; text-rendering: geometricprecision; user-select: none; fill: rgb(0, 0, 0);">bidirectional_26</text><title>Bidirectional</title></g><g class="node-argument-list" transform="translate(0,21)"><path d="M0,0h161.34375a0,0 0 0 1 0,0v19a0,0 0 0 1 0,0h-161.34375a0,0 0 0 1 0,0v-19a0,0 0 0 1 0,0z" style="stroke: rgb(0, 0, 0); fill: rgb(255, 255, 255); stroke-width: 0;"/><g class="node-argument"><rect rx="3" ry="3" x="3" y="3" width="155.34375" height="13" style="fill: transparent;"/><text xml:space="preserve" x="6" y="13" style="font-family: -apple-system, BlinkMacSystemFont, &quot;Segoe WPC&quot;, &quot;Segoe UI&quot;, Ubuntu, &quot;Droid Sans&quot;, sans-serif, &quot;PingFang SC&quot;; font-size: 9px; font-weight: normal; text-rendering: geometricprecision; user-select: none;"><tspan>backward_layer</tspan><tspan> = LSTM(name: "…</tspan></text></g><line class="node" x1="0" x2="161.34375" y1="0" y2="0" style="stroke: rgb(51, 51, 51); fill: none; stroke-width: 1px;"/></g><g class="node-item node-item-type node-item-type-layer" transform="translate(0,40)"><path d="M0,0h161.34375a0,0 0 0 1 0,0v21a0,0 0 0 1 0,0h-161.34375a0,0 0 0 1 0,0v-21a0,0 0 0 1 0,0z" style="stroke: rgb(0, 0, 0); fill: rgb(51, 85, 136); stroke-width: 0;"/><text x="6" y="15" style="font-family: -apple-system, BlinkMacSystemFont, &quot;Segoe WPC&quot;, &quot;Segoe UI&quot;, Ubuntu, &quot;Droid Sans&quot;, sans-serif, &quot;PingFang SC&quot;; font-size: 11px; text-rendering: geometricprecision; user-select: none; fill: rgb(255, 255, 255);">forward_lstm_23</text><title>LSTM</title></g><line class="node" x1="0" x2="161.34375" y1="40" y2="40" style="stroke: rgb(51, 51, 51); fill: none; stroke-width: 1px;"/><g class="node-argument-list" transform="translate(0,61)"><path d="M0,0h161.34375a0,0 0 0 1 0,0v58a0,0 0 0 1 0,0h-161.34375a0,0 0 0 1 0,0v-58a0,0 0 0 1 0,0z" style="stroke: rgb(0, 0, 0); fill: rgb(255, 255, 255); stroke-width: 0;"/><g class="node-argument"><rect rx="3" ry="3" x="3" y="3" width="155.34375" height="13" style="fill: transparent;"/><text xml:space="preserve" x="6" y="13" style="font-family: -apple-system, BlinkMacSystemFont, &quot;Segoe WPC&quot;, &quot;Segoe UI&quot;, Ubuntu, &quot;Droid Sans&quot;, sans-serif, &quot;PingFang SC&quot;; font-size: 9px; font-weight: normal; text-rendering: geometricprecision; user-select: none;"><tspan>recurrent_activation</tspan><tspan> = sigmoid</tspan></text></g><g class="node-argument"><rect rx="3" ry="3" x="3" y="16" width="155.34375" height="13" style="fill: transparent;"/><text xml:space="preserve" x="6" y="26" style="font-family: -apple-system, BlinkMacSystemFont, &quot;Segoe WPC&quot;, &quot;Segoe UI&quot;, Ubuntu, &quot;Droid Sans&quot;, sans-serif, &quot;PingFang SC&quot;; font-size: 9px; font-weight: normal; text-rendering: geometricprecision; user-select: none;"><tspan>seed</tspan><tspan> = </tspan></text></g><g class="node-argument"><rect rx="3" ry="3" x="3" y="29" width="155.34375" height="13" style="fill: transparent;"/><text xml:space="preserve" x="6" y="39" style="font-family: -apple-system, BlinkMacSystemFont, &quot;Segoe WPC&quot;, &quot;Segoe UI&quot;, Ubuntu, &quot;Droid Sans&quot;, sans-serif, &quot;PingFang SC&quot;; font-size: 9px; font-weight: normal; text-rendering: geometricprecision; user-select: none;"><tspan>units</tspan><tspan> = 32</tspan></text></g><g class="node-argument"><rect rx="3" ry="3" x="3" y="42" width="155.34375" height="13" style="fill: transparent;"/><text xml:space="preserve" x="6" y="52" style="font-family: -apple-system, BlinkMacSystemFont, &quot;Segoe WPC&quot;, &quot;Segoe UI&quot;, Ubuntu, &quot;Droid Sans&quot;, sans-serif, &quot;PingFang SC&quot;; font-size: 9px; font-weight: normal; text-rendering: geometricprecision; user-select: none;"><tspan>zero_output_for_mask</tspan><tspan> = false</tspan></text></g><line class="node" x1="0" x2="161.34375" y1="0" y2="0" style="stroke: rgb(51, 51, 51); fill: none; stroke-width: 1px;"/></g><g class="node-item node-item-type node-item-type-activation" transform="translate(0,119)"><path d="M0,0h161.34375a0,0 0 0 1 0,0v21a0,0 0 0 1 0,0h-161.34375a0,0 0 0 1 0,0v-21a0,0 0 0 1 0,0z" style="stroke: rgb(0, 0, 0); fill: rgb(112, 41, 33); stroke-width: 0;"/><text x="6" y="15" style="font-family: -apple-system, BlinkMacSystemFont, &quot;Segoe WPC&quot;, &quot;Segoe UI&quot;, Ubuntu, &quot;Droid Sans&quot;, sans-serif, &quot;PingFang SC&quot;; font-size: 11px; text-rendering: geometricprecision; user-select: none; fill: rgb(255, 255, 255);">Activation</text></g><line class="node" x1="0" x2="161.34375" y1="119" y2="119" style="stroke: rgb(51, 51, 51); fill: none; stroke-width: 1px;"/><g class="node-argument-list" transform="translate(0,140)"><path d="M0,0h161.34375a0,0 0 0 1 0,0v14a5,5 0 0 1 -5,5h-151.34375a5,5 0 0 1 -5,-5v-14a0,0 0 0 1 0,0z" style="stroke: rgb(0, 0, 0); fill: rgb(255, 255, 255); stroke-width: 0;"/><g class="node-argument"><rect rx="3" ry="3" x="3" y="3" width="155.34375" height="13" style="fill: transparent;"/><text xml:space="preserve" x="6" y="13" style="font-family: -apple-system, BlinkMacSystemFont, &quot;Segoe WPC&quot;, &quot;Segoe UI&quot;, Ubuntu, &quot;Droid Sans&quot;, sans-serif, &quot;PingFang SC&quot;; font-size: 9px; font-weight: normal; text-rendering: geometricprecision; user-select: none;"><tspan>activation</tspan><tspan> = tanh</tspan></text></g><line class="node" x1="0" x2="161.34375" y1="0" y2="0" style="stroke: rgb(51, 51, 51); fill: none; stroke-width: 1px;"/></g><path class="node node-border" d="M5,0h151.34375a5,5 0 0 1 5,5v149a5,5 0 0 1 -5,5h-151.34375a5,5 0 0 1 -5,-5v-149a5,5 0 0 1 5,-5z" style="stroke: rgb(51, 51, 51); fill: none; stroke-width: 1px;"/></g><g id="node-name-dropout_26" class="node graph-node" transform="translate(1273.0625,53)" style=""><g class="node-item node-item-type node-item-type-dropout" transform="translate(0,0)"><path d="M5,0h65.625a5,5 0 0 1 5,5v16a0,0 0 0 1 0,0h-75.625a0,0 0 0 1 0,0v-16a5,5 0 0 1 5,-5z" style="stroke: rgb(0, 0, 0); fill: rgb(69, 71, 112); stroke-width: 0;"/><text x="6" y="15" style="font-family: -apple-system, BlinkMacSystemFont, &quot;Segoe WPC&quot;, &quot;Segoe UI&quot;, Ubuntu, &quot;Droid Sans&quot;, sans-serif, &quot;PingFang SC&quot;; font-size: 11px; text-rendering: geometricprecision; user-select: none; fill: rgb(255, 255, 255);">dropout_26</text><title>Dropout</title></g><g class="node-argument-list" transform="translate(0,21)"><path d="M0,0h75.625a0,0 0 0 1 0,0v40a5,5 0 0 1 -5,5h-65.625a5,5 0 0 1 -5,-5v-40a0,0 0 0 1 0,0z" style="stroke: rgb(0, 0, 0); fill: rgb(255, 255, 255); stroke-width: 0;"/><g class="node-argument"><rect rx="3" ry="3" x="3" y="3" width="69.625" height="13" style="fill: transparent;"/><text xml:space="preserve" x="6" y="13" style="font-family: -apple-system, BlinkMacSystemFont, &quot;Segoe WPC&quot;, &quot;Segoe UI&quot;, Ubuntu, &quot;Droid Sans&quot;, sans-serif, &quot;PingFang SC&quot;; font-size: 9px; font-weight: normal; text-rendering: geometricprecision; user-select: none;"><tspan>noise_shape</tspan><tspan> = </tspan></text></g><g class="node-argument"><rect rx="3" ry="3" x="3" y="16" width="69.625" height="13" style="fill: transparent;"/><text xml:space="preserve" x="6" y="26" style="font-family: -apple-system, BlinkMacSystemFont, &quot;Segoe WPC&quot;, &quot;Segoe UI&quot;, Ubuntu, &quot;Droid Sans&quot;, sans-serif, &quot;PingFang SC&quot;; font-size: 9px; font-weight: normal; text-rendering: geometricprecision; user-select: none;"><tspan>rate</tspan><tspan> = 0.3</tspan></text></g><g class="node-argument"><rect rx="3" ry="3" x="3" y="29" width="69.625" height="13" style="fill: transparent;"/><text xml:space="preserve" x="6" y="39" style="font-family: -apple-system, BlinkMacSystemFont, &quot;Segoe WPC&quot;, &quot;Segoe UI&quot;, Ubuntu, &quot;Droid Sans&quot;, sans-serif, &quot;PingFang SC&quot;; font-size: 9px; font-weight: normal; text-rendering: geometricprecision; user-select: none;"><tspan>seed</tspan><tspan> = </tspan></text></g><line class="node" x1="0" x2="75.625" y1="0" y2="0" style="stroke: rgb(51, 51, 51); fill: none; stroke-width: 1px;"/></g><path class="node node-border" d="M5,0h65.625a5,5 0 0 1 5,5v56a5,5 0 0 1 -5,5h-65.625a5,5 0 0 1 -5,-5v-56a5,5 0 0 1 5,-5z" style="stroke: rgb(51, 51, 51); fill: none; stroke-width: 1px;"/></g><g id="node-name-dense_8" class="node graph-node" transform="translate(1425.296875,40)" style=""><g class="node-item node-item-type node-item-type-layer" transform="translate(0,0)"><path d="M5,0h87.046875a5,5 0 0 1 5,5v16a0,0 0 0 1 0,0h-97.046875a0,0 0 0 1 0,0v-16a5,5 0 0 1 5,-5z" style="stroke: rgb(0, 0, 0); fill: rgb(51, 85, 136); stroke-width: 0;"/><text x="6" y="15" style="font-family: -apple-system, BlinkMacSystemFont, &quot;Segoe WPC&quot;, &quot;Segoe UI&quot;, Ubuntu, &quot;Droid Sans&quot;, sans-serif, &quot;PingFang SC&quot;; font-size: 11px; text-rendering: geometricprecision; user-select: none; fill: rgb(255, 255, 255);">dense_8</text><title>Dense</title></g><g class="node-argument-list" transform="translate(0,21)"><path d="M0,0h97.046875a0,0 0 0 1 0,0v66a5,5 0 0 1 -5,5h-87.046875a5,5 0 0 1 -5,-5v-66a0,0 0 0 1 0,0z" style="stroke: rgb(0, 0, 0); fill: rgb(255, 255, 255); stroke-width: 0;"/><g class="node-argument"><rect rx="3" ry="3" x="3" y="3" width="91.046875" height="13" style="fill: transparent;"/><text xml:space="preserve" x="6" y="13" style="font-family: -apple-system, BlinkMacSystemFont, &quot;Segoe WPC&quot;, &quot;Segoe UI&quot;, Ubuntu, &quot;Droid Sans&quot;, sans-serif, &quot;PingFang SC&quot;; font-size: 9px; font-weight: normal; text-rendering: geometricprecision; user-select: none;"><title>float32[64,1]</title><tspan style="font-weight: bold;">kernel</tspan><tspan>〈64×1〉</tspan></text></g><g class="node-argument"><rect rx="3" ry="3" x="3" y="16" width="91.046875" height="13" style="fill: transparent;"/><text xml:space="preserve" x="6" y="26" style="font-family: -apple-system, BlinkMacSystemFont, &quot;Segoe WPC&quot;, &quot;Segoe UI&quot;, Ubuntu, &quot;Droid Sans&quot;, sans-serif, &quot;PingFang SC&quot;; font-size: 9px; font-weight: normal; text-rendering: geometricprecision; user-select: none;"><title>float32[1]</title><tspan style="font-weight: bold;">bias</tspan><tspan>〈1〉</tspan></text></g><g class="node-argument"><rect rx="3" ry="3" x="3" y="29" width="91.046875" height="13" style="fill: transparent;"/><text xml:space="preserve" x="6" y="39" style="font-family: -apple-system, BlinkMacSystemFont, &quot;Segoe WPC&quot;, &quot;Segoe UI&quot;, Ubuntu, &quot;Droid Sans&quot;, sans-serif, &quot;PingFang SC&quot;; font-size: 9px; font-weight: normal; text-rendering: geometricprecision; user-select: none;"><tspan>bias_constraint</tspan><tspan> = </tspan></text></g><g class="node-argument"><rect rx="3" ry="3" x="3" y="42" width="91.046875" height="13" style="fill: transparent;"/><text xml:space="preserve" x="6" y="52" style="font-family: -apple-system, BlinkMacSystemFont, &quot;Segoe WPC&quot;, &quot;Segoe UI&quot;, Ubuntu, &quot;Droid Sans&quot;, sans-serif, &quot;PingFang SC&quot;; font-size: 9px; font-weight: normal; text-rendering: geometricprecision; user-select: none;"><tspan>kernel_constraint</tspan><tspan> = </tspan></text></g><g class="node-argument"><rect rx="3" ry="3" x="3" y="55" width="91.046875" height="13" style="fill: transparent;"/><text xml:space="preserve" x="6" y="65" style="font-family: -apple-system, BlinkMacSystemFont, &quot;Segoe WPC&quot;, &quot;Segoe UI&quot;, Ubuntu, &quot;Droid Sans&quot;, sans-serif, &quot;PingFang SC&quot;; font-size: 9px; font-weight: normal; text-rendering: geometricprecision; user-select: none;"><tspan>units</tspan><tspan> = 1</tspan></text></g><line class="node" x1="0" x2="97.046875" y1="0" y2="0" style="stroke: rgb(51, 51, 51); fill: none; stroke-width: 1px;"/></g><path class="node node-border" d="M5,0h87.046875a5,5 0 0 1 5,5v82a5,5 0 0 1 -5,5h-87.046875a5,5 0 0 1 -5,-5v-82a5,5 0 0 1 5,-5z" style="stroke: rgb(51, 51, 51); fill: none; stroke-width: 1px;"/></g><g class="node" transform="translate(1583.34375,75.5)" style=""><g class="node-item graph-item-output" transform="translate(0,0)"><path d="M5,0h48.65625a5,5 0 0 1 5,5v11a5,5 0 0 1 -5,5h-48.65625a5,5 0 0 1 -5,-5v-11a5,5 0 0 1 5,-5z" style="stroke: rgb(0, 0, 0); fill: rgb(238, 238, 238); stroke-width: 0;"/><text x="6" y="15" style="font-family: -apple-system, BlinkMacSystemFont, &quot;Segoe WPC&quot;, &quot;Segoe UI&quot;, Ubuntu, &quot;Droid Sans&quot;, sans-serif, &quot;PingFang SC&quot;; font-size: 11px; text-rendering: geometricprecision; user-select: none;">dense_8</text></g><path class="node node-border" d="M5,0h48.65625a5,5 0 0 1 5,5v11a5,5 0 0 1 -5,5h-48.65625a5,5 0 0 1 -5,-5v-11a5,5 0 0 1 5,-5z" style="stroke: rgb(51, 51, 51); fill: none; stroke-width: 1px;"/></g></g></g></svg>